<?xml version="1.0" standalone="no"?>
<!DOCTYPE svg PUBLIC "-//W3C//DTD SVG 20010904//EN"
 "http://www.w3.org/TR/2001/REC-SVG-20010904/DTD/svg10.dtd">
<svg version="1.0" xmlns="http://www.w3.org/2000/svg"
 width="418.000000pt" height="418.000000pt" viewBox="0 0 418.000000 418.000000"
 preserveAspectRatio="xMidYMid meet">
<metadata>
Created by potrace 1.14, written by Peter Selinger 2001-2017
</metadata>
<g transform="translate(0.000000,418.000000) scale(0.100000,-0.100000)"
fill="#000000" stroke="none">
<path d="M1991 3577 c-6 -9 -12 -84 -13 -204 l-3 -190 -108 68 c-59 38 -116
69 -127 69 -26 0 -50 -27 -50 -55 0 -28 12 -38 168 -135 l121 -75 1 -134 0
-133 -22 14 c-100 65 -130 80 -154 74 -29 -8 -46 -43 -32 -69 5 -10 54 -48
109 -83 l99 -64 0 -195 0 -195 26 10 c14 6 36 10 50 10 l24 0 0 638 c0 483 -3
641 -12 650 -16 16 -63 15 -77 -1z"/>
<path d="M2090 2927 l0 -633 44 -12 c189 -50 210 -321 32 -406 -19 -9 -43 -16
-55 -16 l-21 0 0 -639 0 -639 81 -12 c164 -26 322 6 358 70 19 35 1 72 -90
180 -135 162 -198 272 -245 426 -25 81 -28 104 -28 259 -1 94 3 179 7 189 6
15 18 -11 51 -110 108 -319 233 -502 402 -585 84 -42 201 -51 304 -24 284 73
586 385 457 470 -13 8 -61 20 -108 25 -46 6 -124 15 -174 21 -229 28 -406 114
-566 272 -41 41 -89 95 -107 121 l-33 46 128 -64 c235 -118 394 -162 557 -154
144 7 201 31 292 122 125 125 186 289 188 506 1 176 -30 250 -105 250 -27 0
-51 -17 -227 -156 -236 -187 -473 -250 -780 -207 -43 5 -42 6 90 50 148 50
282 111 374 172 83 55 185 166 220 237 54 114 41 291 -32 437 -95 187 -260
347 -358 347 -68 0 -79 -30 -105 -275 -30 -282 -141 -496 -351 -672 -41 -35
-78 -63 -81 -63 -3 0 24 60 60 133 102 205 151 372 151 522 0 138 -37 233
-124 320 -47 48 -168 125 -194 125 -9 0 -12 -161 -12 -633z"/>
<path d="M1387 3175 c-13 -13 -42 -118 -62 -228 l-8 -39 -137 136 c-75 75
-143 136 -151 136 -25 0 -59 -30 -59 -53 0 -15 44 -66 136 -158 l135 -135
-103 -23 c-137 -30 -165 -39 -172 -57 -12 -30 -6 -54 17 -69 21 -14 37 -12
186 21 l163 37 89 -89 c49 -49 89 -91 89 -95 0 -3 -36 -13 -80 -23 -63 -13
-84 -22 -96 -42 -15 -22 -15 -26 1 -50 20 -30 43 -30 188 1 l88 19 137 -137
137 -137 38 37 37 38 -136 136 -136 136 28 128 28 127 -23 19 c-51 41 -80 13
-105 -100 l-18 -84 -94 94 -94 94 30 145 c17 80 32 158 32 174 2 47 -53 74
-85 41z"/>
<path d="M842 2448 c-23 -23 -12 -59 48 -154 34 -52 63 -101 67 -109 4 -13
-22 -15 -186 -15 l-191 0 -15 -24 c-13 -19 -14 -29 -5 -45 7 -14 8 -27 1 -40
-7 -13 -7 -23 2 -35 11 -15 39 -16 262 -14 l250 3 3 28 c3 26 5 27 63 27 l59
0 0 -60 c0 -323 242 -651 563 -761 92 -31 186 -49 265 -49 l52 0 0 329 0 328
-46 6 c-100 11 -174 100 -174 209 0 33 5 68 10 79 10 18 5 19 -184 19 l-194 0
-66 104 c-76 119 -102 138 -140 100 -22 -22 -20 -54 7 -94 13 -19 33 -52 46
-72 l23 -38 -134 0 -133 1 -90 142 c-80 126 -93 142 -120 145 -17 2 -36 -3
-43 -10z"/>
<path d="M1994 2241 c-108 -50 -140 -198 -61 -288 39 -44 82 -63 142 -63 140
0 225 140 164 268 -43 87 -155 126 -245 83z"/>
<path d="M886 1847 c-106 -24 -134 -43 -105 -72 13 -14 28 -13 139 10 68 14
128 29 133 34 5 5 7 17 5 27 -5 27 -53 27 -172 1z"/>
<path d="M907 1600 c-115 -49 -215 -94 -223 -101 -18 -15 -18 -33 1 -49 11
-10 55 6 232 81 120 50 224 96 231 102 25 20 7 59 -26 56 -4 0 -101 -40 -215
-89z"/>
<path d="M1080 1427 c-85 -59 -105 -77 -105 -97 0 -16 7 -26 17 -28 19 -4 224
132 232 154 5 13 -18 44 -33 44 -3 0 -54 -33 -111 -73z"/>
<path d="M1156 1201 c-179 -180 -194 -201 -150 -218 11 -4 65 43 190 168 96
96 174 181 174 189 0 16 -18 40 -30 40 -3 0 -86 -81 -184 -179z"/>
<path d="M1379 1109 c-58 -89 -71 -114 -62 -127 23 -38 41 -24 117 89 60 91
73 116 65 131 -21 39 -45 20 -120 -93z"/>
<path d="M1652 1148 c-20 -24 -184 -447 -180 -465 2 -12 12 -18 28 -18 23 0
32 17 117 225 50 124 92 228 92 232 1 9 -28 38 -38 38 -5 0 -13 -6 -19 -12z"/>
<path d="M2027 1078 c-15 -8 -17 -35 -17 -259 0 -222 2 -250 16 -256 9 -3 24
-2 33 4 14 9 16 41 19 239 1 126 0 239 -3 250 -6 26 -25 35 -48 22z"/>
<path d="M1833 1058 c-6 -7 -20 -69 -33 -136 -21 -115 -21 -125 -6 -140 13
-13 20 -14 34 -6 24 15 69 259 51 280 -14 17 -33 18 -46 2z"/>
</g>
</svg>
